# xmcd
#
# Track frame offsets:
#	150
#	24128
#	53758
#	88106
#	118027
#	153652
#	202890
#	223676
#	230512
#	249983
#
# Disc length: 3630 seconds
#
# Revision: 0
# Processed by: cddbd v1.5.2PL0 Copyright (c) Steve Scherf et al.
# Submitted via: EZCDAudioConverter 3.1.2.1
#
DISCID=7d0e2c0a
DTITLE=Stevie Ray Vaughan and Double Trrouble - Live... Texas '87 [Disc 2]
DYEAR=2015
DGENRE=Blues
TTITLE0=Superstition
TTITLE1=Willie The Wimp
TTITLE2=Dirty Pool
TTITLE3=Cold Shot
TTITLE4=Couldn't Stand The Weather
TTITLE5=Life Without You
TTITLE6=Testify/Band Intros
TTITLE7=MC
TTITLE8=Come On Part III
TTITLE9=Love Struck Baby
EXTD=
EXTT0=
EXTT1=
EXTT2=
EXTT3=
EXTT4=
EXTT5=
EXTT6=
EXTT7=
EXTT8=
EXTT9=
PLAYORDER=
